Coordinates
version=1
nRows=19
nColumns=33
inDegrees=yes

Units are S.I. units (second, meters, Newtons, ...)
Angles are in degrees.

endheader
time	ground_thorax_rot_x	ground_thorax_rot_y	ground_thorax_rot_z	ground_thorax_tx	ground_thorax_ty	ground_thorax_tz	clav_prot_r	clav_elev_r	scapula_abduction_r	scapula_elevation_r	scapula_upward_rot_r	scapula_winging_r	shoulder_elv_r	plane_of_elev_r	axial_rot_r	elbow_flexion_r	pro_sup_r	wrist_flex_r	wrist_dev_r	clav_prot_l	clav_elev_l	scapula_abduction_l	scapula_elevation_l	scapula_upward_rot_l	scapula_winging_l	shoulder_elv_l	plane_of_elev_l	axial_rot_l	elbow_flexion_l	pro_sup_l	wrist_flex_l	wrist_dev_l	
6.3300	27.222133	27.635647	43.983863	-56.030022	770.103677	8.695387	15.161906	37.706743	34.129322	45.000000	-45.000000	-3678.483319	-2455.439839	31.359927	31.535362	1807.337733	36.190660	18.253464	14.210556	10.460837	-45.000000	-36.607567	45.000000	-44.999994	2251.792407	-2983.300306	139.867038	179.687585	-1078.936389	48.499229	10.638860	-19.570141	
6.3400	27.260482	27.512922	43.927537	-56.193145	770.402373	8.889168	15.163911	37.707455	34.189913	45.000000	-45.000000	-3678.574988	-2455.400145	31.407410	31.579304	1807.468478	36.194807	18.279115	14.097471	10.535606	-45.000000	-36.609567	45.000000	-44.999990	2251.838744	-2983.202390	139.778090	179.767404	-1078.902878	48.317749	10.671252	-19.636471	
6.3500	27.297839	27.393598	43.832009	-56.423764	770.703695	9.067682	15.186455	37.720863	34.254092	45.000000	-45.000000	-3678.683310	-2455.374811	31.455043	31.605949	1807.632760	36.202191	18.249863	13.947769	10.617649	-45.000000	-36.702337	45.000000	-44.999981	2251.889657	-2983.105827	139.678404	179.821675	-1078.827511	48.098950	10.721404	-19.727619	
6.3600	27.350791	27.280142	43.749944	-56.802047	771.007836	9.215431	15.191788	37.725523	34.331004	45.000000	-45.000000	-3678.796372	-2455.311524	31.503815	31.635050	1807.770445	36.221392	18.279196	13.816876	10.644308	-45.000000	-36.740324	45.000000	-44.999966	2251.947064	-2982.992710	139.585152	179.885387	-1078.769015	47.818249	10.753201	-19.802974	
6.3700	27.413077	27.175775	43.667371	-57.339326	771.322495	9.328845	15.195801	37.742646	34.412181	45.000000	-45.000000	-3678.916581	-2455.213719	31.552797	31.646545	1807.909131	36.248175	18.330116	13.683667	10.648789	-45.000000	-36.755955	45.000000	-44.999940	2252.010582	-2982.856764	139.496200	179.936155	-1078.701360	47.456467	10.777562	-19.874713	
6.3800	27.489020	27.077938	43.565980	-58.059238	771.658440	9.402995	15.201350	37.769596	34.499507	45.000000	-45.000000	-3679.053319	-2455.084153	31.606130	31.630222	1808.062876	36.280955	18.393162	13.540001	10.632839	-45.000000	-36.772686	45.000000	-44.999892	2252.084752	-2982.700251	139.405221	179.973712	-1078.606060	46.995973	10.795644	-19.948273	
6.3900	27.579788	26.983949	43.447856	-58.968590	772.031453	9.437164	15.208946	37.811428	34.594152	45.000000	-45.000000	-3679.205677	-2454.918378	31.663732	31.578724	1808.236041	36.316434	18.468407	13.386299	10.616124	-45.000000	-36.770929	45.000000	-44.999807	2252.166901	-2982.514115	139.313061	179.994125	-1078.485239	46.431445	10.805911	-20.021300	
6.4000	27.692841	26.883538	43.285049	-60.067814	772.461212	9.433372	15.221518	37.857547	34.703907	45.000000	-45.000000	-3679.384085	-2454.729043	31.733477	31.490946	1808.439281	36.351898	18.536876	13.211885	10.604998	-45.000000	-36.785009	45.000000	-44.999654	2252.261050	-2982.305198	139.208286	179.999981	-1078.317980	45.766959	10.809960	-20.102775	
6.4100	27.831482	26.770628	43.082978	-61.359284	772.969367	9.394867	15.234754	37.906025	34.834388	45.000000	-45.000000	-3679.583890	-2454.512393	31.815145	31.377073	1808.661390	36.386237	18.611447	13.024777	10.599643	-45.000000	-36.790976	45.000000	-44.999380	2252.363032	-2982.068852	139.093389	179.999966	-1078.117159	45.018009	10.800214	-20.185925	
6.4200	27.997814	26.639088	42.823342	-62.846285	773.577906	9.325714	15.251103	37.948156	34.991532	45.000000	-45.000000	-3679.811837	-2454.278390	31.908740	31.244978	1808.909592	36.418096	18.682197	12.817598	10.593986	-45.000000	-36.819833	45.000000	-44.998890	2252.473567	-2981.809599	138.961009	179.999939	-1077.871328	44.202183	10.775268	-20.275740	
6.4300	28.189515	26.486213	42.514106	-64.532064	774.307110	9.230331	15.269832	37.985293	35.175236	45.000000	-45.000000	-3680.060111	-2454.026406	32.010393	31.102283	1809.175140	36.447559	18.755201	12.594554	10.590603	-45.000000	-36.855903	45.000000	-44.998012	2252.588873	-2981.522237	138.816245	179.999891	-1077.592287	43.341040	10.730434	-20.367811	
6.4400	28.403185	26.312485	42.152115	-66.419808	775.174227	9.113101	15.293726	38.019117	35.380753	45.000000	-45.000000	-3680.326658	-2453.757243	32.116690	30.949640	1809.460487	36.474335	18.828087	12.353012	10.586470	-45.000000	-36.910854	45.000000	-44.996437	2252.709138	-2981.206807	138.659687	179.999804	-1077.274790	42.451603	10.663734	-20.462759	
6.4500	28.635418	26.118700	41.741369	-68.512488	776.192116	8.978014	15.324355	38.056054	35.602840	45.000000	-45.000000	-3680.605218	-2453.472221	32.224607	30.784295	1809.759684	36.500138	18.902964	12.095172	10.581020	-45.000000	-36.983793	45.000000	-44.993625	2252.832935	-2980.863080	138.496597	179.999649	-1076.924604	41.550986	10.574016	-20.558821	
6.4600	28.884915	25.905790	41.281721	-70.813302	777.368908	8.828588	15.362589	38.097677	35.838195	45.000000	-45.000000	-3680.894407	-2453.169788	32.330529	30.599216	1810.072481	36.525965	18.980630	11.820987	10.573988	-45.000000	-37.076204	45.000000	-44.988559	2252.960039	-2980.490389	138.328076	179.999372	-1076.543874	40.652348	10.461802	-20.655212	
6.4700	29.156027	25.669107	40.769035	-73.325526	778.707615	8.667895	15.406921	38.140285	36.087494	45.000000	-45.000000	-3681.190844	-2452.852498	32.437947	30.390107	1810.387002	36.554355	19.060678	11.533075	10.566384	-45.000000	-37.188487	45.000000	-44.979565	2253.092749	-2980.094555	138.155499	179.998874	-1076.139476	39.769232	10.329850	-20.752676	
6.4800	29.446844	25.410584	40.208351	-76.052832	780.206472	8.498785	15.459254	38.181527	36.346894	45.000000	-45.000000	-3681.490370	-2452.516192	32.544923	30.155332	1810.697153	36.585894	19.141546	11.232777	10.559064	-45.000000	-37.324301	45.000000	-44.963230	2253.235100	-2979.680316	137.981931	179.997985	-1075.719138	38.908843	10.184596	-20.850896	
6.4900	29.753904	25.130991	39.603732	-78.998387	781.859001	8.323994	15.519862	38.216674	36.611168	45.000000	-45.000000	-3681.789822	-2452.162944	32.651401	29.899764	1810.996072	36.620202	19.221634	10.922398	10.554897	-45.000000	-37.483284	45.000000	-44.934596	2253.391207	-2979.253148	137.809261	179.996388	-1075.293995	38.074163	10.033691	-20.949986	
6.5000	30.071632	24.831549	38.964349	-82.164169	783.654492	8.146504	15.591663	38.236859	36.874803	45.000000	-45.000000	-3682.086140	-2451.793352	32.755440	29.630046	1811.283625	36.652770	19.298159	10.601772	10.555742	-45.000000	-37.664257	45.000000	-44.881552	2253.568347	-2978.817741	137.641148	179.993536	-1074.874992	37.260148	9.886217	-21.048620	
6.5100	30.398771	24.508566	38.291546	-85.549127	785.578461	7.969335	15.665703	38.233838	37.136464	45.000000	-45.000000	-3682.380752	-2451.413985	32.859713	29.357796	1811.559061	36.678139	19.373228	10.278511	10.569786	-45.000000	-37.849010	45.000000	-44.791428	2253.768627	-2978.376224	137.476948	179.988407	-1074.475543	36.458909	9.748323	-21.146068	
